<svg xmlns="http://www.w3.org/2000/svg" viewBox="0 0 1080 1080" width="1080" height="1080">
  <defs>
    <linearGradient id="bg" x1="0" y1="0" x2="0" y2="1">
      <stop offset="0%" stop-color="#FDF6F0"/>
      <stop offset="100%" stop-color="#F5E6D3"/>
    </linearGradient>
    <linearGradient id="pinkGlow" x1="0" y1="0" x2="1" y2="1">
      <stop offset="0%" stop-color="#E8A0B4"/>
      <stop offset="100%" stop-color="#D4849A"/>
    </linearGradient>
    <filter id="shadow">
      <feDropShadow dx="0" dy="4" stdDeviation="8" flood-color="#1a1a2e" flood-opacity="0.1"/>
    </filter>
    <filter id="glow">
      <feGaussianBlur stdDeviation="2"/>
    </filter>
  </defs>
  <rect width="1080" height="1080" fill="url(#bg)"/>
  <circle cx="840" cy="240" r="300" fill="#E8A0B4" opacity="0.05"/>
  <circle cx="240" cy="840" r="250" fill="#E8A0B4" opacity="0.04"/>
  <rect x="80" y="40" width="300" height="48" rx="24" fill="#E8A0B4" opacity="0.12"/>
  <text x="100" y="71" font-family="Georgia, serif" font-size="28" font-weight="700" fill="#1a1a2e" letter-spacing="3">CROSHARA</text>
  <text x="380" y="71" font-family="Arial, sans-serif" font-size="14" fill="#E8A0B4" letter-spacing="1">GIFT</text>
  <rect x="80" y="90" width="60" height="3" rx="1.5" fill="#E8A0B4"/>
  <g filter="url(#shadow)">
    <rect x="240" y="180" width="600" height="450" rx="30" fill="white" opacity="0.9"/>
    <rect x="240" y="180" width="600" height="450" rx="30" fill="none" stroke="#E8A0B4" stroke-width="1.5" opacity="0.2"/>
    <rect x="390" y="260" width="300" height="220" rx="15" fill="#E8A0B4" opacity="0.06"/>
    <rect x="410" y="280" width="260" height="180" rx="10" fill="white" stroke="#E8A0B4" stroke-width="1.5" opacity="0.3"/>
    <path d="M410 330 L540 400 L670 330" fill="none" stroke="#E8A0B4" stroke-width="2" opacity="0.4"/>
    <path d="M410 370 L540 440 L670 370" fill="none" stroke="#E8A0B4" stroke-width="2" opacity="0.4"/>
    <rect x="360" y="250" width="60" height="30" rx="5" fill="#E8A0B4" opacity="0.2"/>
    <line x1="390" y1="260" x2="390" y2="280" stroke="#E8A0B4" stroke-width="2"/>
    <line x1="390" y1="260" x2="360" y2="245" stroke="#E8A0B4" stroke-width="2"/>
    <line x1="390" y1="260" x2="420" y2="245" stroke="#E8A0B4" stroke-width="2"/>
    <rect x="640" y="250" width="60" height="30" rx="5" fill="#E8A0B4" opacity="0.2"/>
    <line x1="670" y1="260" x2="670" y2="280" stroke="#E8A0B4" stroke-width="2"/>
    <line x1="670" y1="260" x2="640" y2="245" stroke="#E8A0B4" stroke-width="2"/>
    <line x1="670" y1="260" x2="700" y2="245" stroke="#E8A0B4" stroke-width="2"/>
    <circle cx="400" cy="500" r="6" fill="#E8A0B4" opacity="0.3"/>
    <circle cx="500" cy="520" r="4" fill="#E8A0B4" opacity="0.2"/>
    <circle cx="620" cy="510" r="5" fill="#E8A0B4" opacity="0.25"/>
    <circle cx="680" cy="490" r="3" fill="#E8A0B4" opacity="0.15"/>
  </g>
  <text x="540" y="530" font-family="Georgia, serif" font-size="20" fill="#E8A0B4" text-anchor="middle" letter-spacing="2">THE PERFECT</text>
  <text x="540" y="580" font-family="Georgia, serif" font-size="46" font-weight="700" fill="#1a1a2e" text-anchor="middle" letter-spacing="2">Baby Shower Gift</text>
  <rect x="290" y="620" width="500" height="60" rx="30" fill="url(#pinkGlow)"/>
  <text x="540" y="658" font-family="Arial, sans-serif" font-size="22" font-weight="700" fill="white" text-anchor="middle" letter-spacing="4">GIFT BUNDLE</text>
  <rect x="140" y="720" width="800" height="100" rx="20" fill="white" opacity="0.7"/>
  <rect x="140" y="720" width="800" height="100" rx="20" fill="none" stroke="#E8A0B4" stroke-width="1" opacity="0.2"/>
  <circle cx="195" cy="770" r="16" fill="#E8A0B4"/>
  <text x="195" y="775" font-family="Arial, sans-serif" font-size="14" font-weight="700" fill="white" text-anchor="middle">✓</text>
  <text x="225" y="765" font-family="Arial, sans-serif" font-size="15" fill="#1a1a2e" font-weight="700">Premium Gift Box</text>
  <text x="225" y="785" font-family="Arial, sans-serif" font-size="12" fill="#1a1a2e" opacity="0.5">Hand-packed with care</text>
  <line x1="440" y1="735" x2="440" y2="805" stroke="#E8A0B4" stroke-width="1" opacity="0.3"/>
  <circle cx="495" cy="770" r="16" fill="#E8A0B4"/>
  <text x="495" y="775" font-family="Arial, sans-serif" font-size="14" font-weight="700" fill="white" text-anchor="middle">✓</text>
  <text x="525" y="765" font-family="Arial, sans-serif" font-size="15" fill="#1a1a2e" font-weight="700">Free Greeting Card</text>
  <text x="525" y="785" font-family="Arial, sans-serif" font-size="12" fill="#1a1a2e" opacity="0.5">Personalized message</text>
  <line x1="710" y1="735" x2="710" y2="805" stroke="#E8A0B4" stroke-width="1" opacity="0.3"/>
  <circle cx="765" cy="770" r="16" fill="#E8A0B4"/>
  <text x="765" y="775" font-family="Arial, sans-serif" font-size="14" font-weight="700" fill="white" text-anchor="middle">✓</text>
  <text x="795" y="765" font-family="Arial, sans-serif" font-size="15" fill="#1a1a2e" font-weight="700">Free Shipping</text>
  <text x="795" y="785" font-family="Arial, sans-serif" font-size="12" fill="#1a1a2e" opacity="0.5">Pan India</text>
  <rect x="80" y="1020" width="920" height="2" fill="#E8A0B4" opacity="0.3"/>
  <text x="540" y="1045" font-family="Arial, sans-serif" font-size="11" fill="#1a1a2e" opacity="0.3" text-anchor="middle" letter-spacing="2">CROSHARA · INDIA'S FIRST BAREFOOT-FRIENDLY HANDMADE BABY SHOES</text>
</svg>