<svg xmlns="http://www.w3.org/2000/svg" viewBox="0 0 1080 1080" width="1080" height="1080">
  <defs>
    <linearGradient id="bg" x1="0" y1="0" x2="1" y2="1">
      <stop offset="0%" stop-color="#FDF6F0"/>
      <stop offset="50%" stop-color="#F8EFE2"/>
      <stop offset="100%" stop-color="#F2E6D5"/>
    </linearGradient>
    <linearGradient id="goldBadge" x1="0" y1="0" x2="1" y2="1">
      <stop offset="0%" stop-color="#1a1a2e"/>
      <stop offset="100%" stop-color="#2a2a4e"/>
    </linearGradient>
    <filter id="shadow">
      <feDropShadow dx="0" dy="4" stdDeviation="8" flood-color="#1a1a2e" flood-opacity="0.08"/>
    </filter>
    <filter id="badgeGlow">
      <feDropShadow dx="0" dy="2" stdDeviation="6" flood-color="#E8A0B4" flood-opacity="0.3"/>
    </filter>
  </defs>
  <rect width="1080" height="1080" fill="url(#bg)"/>
  <circle cx="800" cy="800" r="350" fill="#E8A0B4" opacity="0.04"/>
  <rect x="80" y="40" width="300" height="48" rx="24" fill="#E8A0B4" opacity="0.12"/>
  <text x="100" y="71" font-family="Georgia, serif" font-size="28" font-weight="700" fill="#1a1a2e" letter-spacing="3">CROSHARA</text>
  <text x="380" y="71" font-family="Arial, sans-serif" font-size="14" fill="#E8A0B4" letter-spacing="1">QUALITY</text>
  <rect x="80" y="90" width="60" height="3" rx="1.5" fill="#E8A0B4"/>
  <text x="540" y="210" font-family="Georgia, serif" font-size="48" font-weight="700" fill="#1a1a2e" text-anchor="middle" letter-spacing="2">Uncompromising</text>
  <text x="540" y="265" font-family="Georgia, serif" font-size="48" font-weight="700" fill="#1a1a2e" text-anchor="middle" letter-spacing="2">Quality</text>
  <rect x="420" y="285" width="240" height="3" rx="1.5" fill="#E8A0B4" opacity="0.5"/>
  <g filter="url(#shadow)">
    <rect x="120" y="330" width="380" height="350" rx="25" fill="white"/>
    <rect x="120" y="330" width="380" height="350" rx="25" fill="none" stroke="#E8A0B4" stroke-width="1" opacity="0.15"/>
    <rect x="200" y="380" width="220" height="220" rx="110" fill="none" stroke="#E8A0B4" stroke-width="2" opacity="0.15"/>
    <rect x="220" y="400" width="180" height="180" rx="90" fill="none" stroke="#E8A0B4" stroke-width="1.5" opacity="0.1"/>
    <text x="310" y="470" font-family="Georgia, serif" font-size="60" font-weight="700" fill="#E8A0B4" text-anchor="middle">VS</text>
    <text x="310" y="520" font-family="Arial, sans-serif" font-size="13" fill="#1a1a2e" text-anchor="middle" opacity="0.4">Ordinary vs CROSHARA</text>
    <text x="310" y="640" font-family="Georgia, serif" font-size="22" font-weight="700" fill="#1a1a2e" text-anchor="middle">See the Difference</text>
  </g>
  <g filter="url(#shadow)">
    <rect x="580" y="330" width="380" height="160" rx="20" fill="white"/>
    <rect x="580" y="330" width="380" height="160" rx="20" fill="none" stroke="#E8A0B4" stroke-width="1" opacity="0.15"/>
    <circle cx="630" cy="410" r="25" fill="#E8A0B4" opacity="0.12"/>
    <text x="630" y="416" font-family="Arial, sans-serif" font-size="22" font-weight="700" fill="#E8A0B4" text-anchor="middle">100%</text>
    <text x="675" y="400" font-family="Arial, sans-serif" font-size="17" font-weight="700" fill="#1a1a2e">Handmade with Love</text>
    <text x="675" y="425" font-family="Arial, sans-serif" font-size="13" fill="#1a1a2e" opacity="0.5">Every pair crafted by skilled artisans</text>
  </g>
  <g filter="url(#shadow)">
    <rect x="580" y="515" width="380" height="160" rx="20" fill="white"/>
    <rect x="580" y="515" width="380" height="160" rx="20" fill="none" stroke="#E8A0B4" stroke-width="1" opacity="0.15"/>
    <circle cx="630" cy="595" r="25" fill="#1a1a2e" opacity="0.08"/>
    <text x="630" y="600" font-family="Arial, sans-serif" font-size="20" font-weight="700" fill="#1a1a2e" text-anchor="middle">✓</text>
    <text x="675" y="585" font-family="Arial, sans-serif" font-size="17" font-weight="700" fill="#1a1a2e">Premium Materials</text>
    <text x="675" y="610" font-family="Arial, sans-serif" font-size="13" fill="#1a1a2e" opacity="0.5">Cotton, wool & non-slip sole</text>
  </g>
  <rect x="240" y="730" width="600" height="60" rx="30" fill="url(#goldBadge)"/>
  <text x="540" y="768" font-family="Arial, sans-serif" font-size="18" font-weight="700" fill="white" text-anchor="middle" letter-spacing="3">EXPLORE OUR QUALITY</text>
  <rect x="200" y="820" width="680" height="50" rx="25" fill="white" opacity="0.6"/>
  <text x="540" y="852" font-family="Arial, sans-serif" font-size="14" fill="#1a1a2e" text-anchor="middle" opacity="0.5">30-day satisfaction guarantee · Made in India</text>
  <rect x="80" y="1020" width="920" height="2" fill="#E8A0B4" opacity="0.3"/>
  <text x="540" y="1045" font-family="Arial, sans-serif" font-size="11" fill="#1a1a2e" opacity="0.3" text-anchor="middle" letter-spacing="2">CROSHARA · INDIA'S FIRST BAREFOOT-FRIENDLY HANDMADE BABY SHOES</text>
</svg>