<svg xmlns="http://www.w3.org/2000/svg" viewBox="0 0 1080 1080" width="1080" height="1080">
  <defs>
    <linearGradient id="bg" x1="0" y1="0" x2="0" y2="1">
      <stop offset="0%" stop-color="#FDF6F0"/>
      <stop offset="40%" stop-color="#F8F0F2"/>
      <stop offset="100%" stop-color="#E8E0F0"/>
    </linearGradient>
    <linearGradient id="warmBtn" x1="0" y1="0" x2="1" y2="0">
      <stop offset="0%" stop-color="#E8A0B4"/>
      <stop offset="100%" stop-color="#D4849A"/>
    </linearGradient>
    <filter id="shadow">
      <feDropShadow dx="0" dy="4" stdDeviation="8" flood-color="#1a1a2e" flood-opacity="0.08"/>
    </filter>
  </defs>
  <rect width="1080" height="1080" fill="url(#bg)"/>
  <rect x="80" y="40" width="300" height="48" rx="24" fill="#E8A0B4" opacity="0.12"/>
  <text x="100" y="71" font-family="Georgia, serif" font-size="28" font-weight="700" fill="#1a1a2e" letter-spacing="3">CROSHARA</text>
  <text x="380" y="71" font-family="Arial, sans-serif" font-size="14" fill="#E8A0B4" letter-spacing="1">WINTER</text>
  <rect x="80" y="90" width="60" height="3" rx="1.5" fill="#E8A0B4"/>
  <text x="540" y="220" font-family="Georgia, serif" font-size="52" font-weight="700" fill="#1a1a2e" text-anchor="middle" letter-spacing="3">Winter Ready</text>
  <rect x="420" y="250" width="240" height="3" rx="1.5" fill="#E8A0B4" opacity="0.5"/>
  <text x="540" y="295" font-family="Arial, sans-serif" font-size="20" fill="#1a1a2e" text-anchor="middle" opacity="0.6" letter-spacing="2">Warm Wool Collection</text>
  <g filter="url(#shadow)">
    <rect x="140" y="340" width="800" height="380" rx="30" fill="white" opacity="0.85"/>
    <rect x="140" y="340" width="800" height="380" rx="30" fill="none" stroke="#E8A0B4" stroke-width="1" opacity="0.15"/>
  </g>
  <path d="M350 420 Q370 390 400 420 Q430 450 450 420 Q470 390 500 420 Q530 450 550 420" fill="none" stroke="#E8A0B4" stroke-width="3" stroke-linecap="round" opacity="0.4"/>
  <path d="M530 420 Q550 390 580 420 Q610 450 630 420 Q650 390 680 420 Q710 450 730 420" fill="none" stroke="#E8A0B4" stroke-width="3" stroke-linecap="round" opacity="0.4"/>
  <path d="M280 450 Q300 420 330 450 Q360 480 380 450 Q400 420 430 450" fill="none" stroke="#E8A0B4" stroke-width="2.5" stroke-linecap="round" opacity="0.3"/>
  <path d="M650 450 Q670 420 700 450 Q730 480 750 450 Q770 420 800 450" fill="none" stroke="#E8A0B4" stroke-width="2.5" stroke-linecap="round" opacity="0.3"/>
  <circle cx="320" cy="500" r="50" fill="none" stroke="#E8A0B4" stroke-width="1.5" opacity="0.2"/>
  <circle cx="320" cy="500" r="35" fill="none" stroke="#E8A0B4" stroke-width="1" opacity="0.15"/>
  <circle cx="320" cy="500" r="20" fill="#E8A0B4" opacity="0.1"/>
  <circle cx="760" cy="500" r="50" fill="none" stroke="#E8A0B4" stroke-width="1.5" opacity="0.2"/>
  <circle cx="760" cy="500" r="35" fill="none" stroke="#E8A0B4" stroke-width="1" opacity="0.15"/>
  <circle cx="760" cy="500" r="20" fill="#E8A0B4" opacity="0.1"/>
  <rect x="340" y="470" width="400" height="70" rx="35" fill="#1a1a2e" opacity="0.05"/>
  <text x="540" y="510" font-family="Georgia, serif" font-size="30" font-weight="700" fill="#1a1a2e" text-anchor="middle" letter-spacing="1">Cozy Knit Booties</text>
  <text x="540" y="545" font-family="Arial, sans-serif" font-size="17" fill="#1a1a2e" text-anchor="middle" opacity="0.5">Pure wool · Fleece-lined · Non-slip</text>
  <rect x="420" y="590" width="240" height="50" rx="25" fill="url(#warmBtn)"/>
  <text x="540" y="622" font-family="Arial, sans-serif" font-size="18" font-weight="700" fill="white" text-anchor="middle" letter-spacing="2">SHOP WINTER</text>
  <rect x="200" y="670" width="680" height="40" rx="20" fill="#E8A0B4" opacity="0.08"/>
  <text x="540" y="696" font-family="Arial, sans-serif" font-size="14" fill="#1a1a2e" text-anchor="middle" opacity="0.6">❄ Keep those tiny toes warm this season ❄</text>
  <rect x="80" y="1020" width="920" height="2" fill="#E8A0B4" opacity="0.3"/>
  <text x="540" y="1045" font-family="Arial, sans-serif" font-size="11" fill="#1a1a2e" opacity="0.3" text-anchor="middle" letter-spacing="2">CROSHARA · INDIA'S FIRST BAREFOOT-FRIENDLY HANDMADE BABY SHOES</text>
</svg>