<svg xmlns="http://www.w3.org/2000/svg" viewBox="0 0 1080 1080" width="1080" height="1080">
  <defs>
    <linearGradient id="bg" x1="0" y1="0" x2="0" y2="1">
      <stop offset="0%" stop-color="#FDF6F0"/>
      <stop offset="100%" stop-color="#F5E6D3"/>
    </linearGradient>
    <linearGradient id="pinkGlow" x1="0" y1="0" x2="1" y2="1">
      <stop offset="0%" stop-color="#E8A0B4"/>
      <stop offset="100%" stop-color="#D4849A"/>
    </linearGradient>
    <filter id="shadow">
      <feDropShadow dx="0" dy="4" stdDeviation="8" flood-color="#1a1a2e" flood-opacity="0.1"/>
    </filter>
    <filter id="softShadow">
      <feDropShadow dx="0" dy="2" stdDeviation="4" flood-color="#1a1a2e" flood-opacity="0.06"/>
    </filter>
  </defs>
  <rect width="1080" height="1080" fill="url(#bg)" rx="0"/>
  <circle cx="860" cy="220" r="320" fill="#E8A0B4" opacity="0.08"/>
  <circle cx="220" cy="860" r="280" fill="#E8A0B4" opacity="0.06"/>
  <circle cx="540" cy="540" r="380" fill="#E8A0B4" opacity="0.04"/>
  <rect x="80" y="40" width="300" height="48" rx="24" fill="#E8A0B4" opacity="0.15"/>
  <text x="100" y="71" font-family="Georgia, serif" font-size="28" font-weight="700" fill="#1a1a2e" letter-spacing="3">CROSHARA</text>
  <text x="380" y="71" font-family="Arial, sans-serif" font-size="14" fill="#E8A0B4" letter-spacing="1">BABY</text>
  <rect x="80" y="90" width="60" height="3" rx="1.5" fill="#E8A0B4"/>
  <g filter="url(#shadow)">
    <rect x="240" y="200" width="600" height="400" rx="30" fill="white" opacity="0.85"/>
    <rect x="240" y="200" width="600" height="400" rx="30" fill="none" stroke="#E8A0B4" stroke-width="1.5" opacity="0.3"/>
    <circle cx="440" cy="340" r="70" fill="#FDF6F0"/>
    <circle cx="440" cy="340" r="70" fill="none" stroke="#E8A0B4" stroke-width="2"/>
    <circle cx="440" cy="340" r="45" fill="#E8A0B4" opacity="0.2"/>
    <path d="M410 340 Q425 310 440 340 Q455 370 470 340" fill="none" stroke="#E8A0B4" stroke-width="4" stroke-linecap="round"/>
    <circle cx="420" cy="325" r="5" fill="#1a1a2e" opacity="0.6"/>
    <circle cx="460" cy="325" r="5" fill="#1a1a2e" opacity="0.6"/>
    <circle cx="640" cy="340" r="70" fill="#FDF6F0"/>
    <circle cx="640" cy="340" r="70" fill="none" stroke="#E8A0B4" stroke-width="2"/>
    <circle cx="640" cy="340" r="45" fill="#E8A0B4" opacity="0.2"/>
    <path d="M610 340 Q625 310 640 340 Q655 370 670 340" fill="none" stroke="#E8A0B4" stroke-width="4" stroke-linecap="round"/>
    <circle cx="620" cy="325" r="5" fill="#1a1a2e" opacity="0.6"/>
    <circle cx="660" cy="325" r="5" fill="#1a1a2e" opacity="0.6"/>
  </g>
  <text x="540" y="460" font-family="Georgia, serif" font-size="38" font-weight="700" fill="#1a1a2e" text-anchor="middle" letter-spacing="2">Toddler Shoes</text>
  <text x="540" y="505" font-family="Arial, sans-serif" font-size="22" fill="#1a1a2e" text-anchor="middle" opacity="0.7" letter-spacing="1">For Active Little Explorers</text>
  <rect x="405" y="535" width="270" height="50" rx="25" fill="url(#pinkGlow)"/>
  <text x="540" y="567" font-family="Arial, sans-serif" font-size="22" font-weight="700" fill="white" text-anchor="middle" letter-spacing="3">6 – 24 MONTHS</text>
  <rect x="80" y="660" width="920" height="2" fill="#E8A0B4" opacity="0.2"/>
  <circle cx="100" cy="690" r="4" fill="#E8A0B4"/>
  <text x="115" y="695" font-family="Arial, sans-serif" font-size="14" fill="#1a1a2e" opacity="0.5" letter-spacing="1">COMFORT FIT · NON-SLIP SOLE · HANDMADE</text>
  <circle cx="200" cy="730" r="20" fill="#E8A0B4" opacity="0.12"/>
  <text x="220" y="735" font-family="Arial, sans-serif" font-size="13" fill="#1a1a2e" opacity="0.4">Follow @crosharababy</text>
  <rect x="850" y="715" width="150" height="32" rx="16" fill="#1a1a2e" opacity="0.05"/>
  <text x="870" y="736" font-family="Arial, sans-serif" font-size="12" font-weight="700" fill="#E8A0B4" letter-spacing="1">SHOP NOW</text>
  <path d="M975 730 L985 725 L985 735 Z" fill="#E8A0B4"/>
  <rect x="80" y="1020" width="920" height="2" fill="#E8A0B4" opacity="0.3"/>
  <text x="540" y="1045" font-family="Arial, sans-serif" font-size="11" fill="#1a1a2e" opacity="0.3" text-anchor="middle" letter-spacing="2">CROSHARA · INDIA'S FIRST BAREFOOT-FRIENDLY HANDMADE BABY SHOES</text>
</svg>