<svg xmlns="http://www.w3.org/2000/svg" viewBox="0 0 1080 1080" width="1080" height="1080">
  <defs>
    <linearGradient id="bg" x1="0" y1="0" x2="0" y2="1">
      <stop offset="0%" stop-color="#FDF6F0"/>
      <stop offset="100%" stop-color="#F8EFE2"/>
    </linearGradient>
    <linearGradient id="starGrad" x1="0" y1="0" x2="1" y2="0">
      <stop offset="0%" stop-color="#FFD700"/>
      <stop offset="100%" stop-color="#FFC107"/>
    </linearGradient>
    <filter id="shadow">
      <feDropShadow dx="0" dy="4" stdDeviation="8" flood-color="#1a1a2e" flood-opacity="0.08"/>
    </filter>
    <filter id="starGlow">
      <feDropShadow dx="0" dy="2" stdDeviation="6" flood-color="#FFD700" flood-opacity="0.3"/>
    </filter>
  </defs>
  <rect width="1080" height="1080" fill="url(#bg)"/>
  <circle cx="800" cy="800" r="350" fill="#E8A0B4" opacity="0.04"/>
  <circle cx="280" cy="280" r="300" fill="#E8A0B4" opacity="0.03"/>
  <rect x="80" y="40" width="300" height="48" rx="24" fill="#E8A0B4" opacity="0.12"/>
  <text x="100" y="71" font-family="Georgia, serif" font-size="28" font-weight="700" fill="#1a1a2e" letter-spacing="3">CROSHARA</text>
  <text x="380" y="71" font-family="Arial, sans-serif" font-size="14" fill="#E8A0B4" letter-spacing="1">REVIEWS</text>
  <rect x="80" y="90" width="60" height="3" rx="1.5" fill="#E8A0B4"/>
  <g filter="url(#shadow)">
    <rect x="190" y="180" width="700" height="360" rx="30" fill="white" opacity="0.85"/>
    <rect x="190" y="180" width="700" height="360" rx="30" fill="none" stroke="#E8A0B4" stroke-width="1" opacity="0.12"/>
    <text x="540" y="240" font-family="Georgia, serif" font-size="36" font-weight="700" fill="#1a1a2e" text-anchor="middle" letter-spacing="1">5 Star Reviews</text>
    <rect x="410" y="260" width="260" height="3" rx="1.5" fill="#E8A0B4" opacity="0.4"/>
    <g filter="url(#starGlow)">
      <polygon points="320,310 330,340 360,340 335,360 345,390 320,370 295,390 305,360 280,340 310,340" fill="url(#starGrad)"/>
      <polygon points="390,310 400,340 430,340 405,360 415,390 390,370 365,390 375,360 350,340 380,340" fill="url(#starGrad)"/>
      <polygon points="460,310 470,340 500,340 475,360 485,390 460,370 435,390 445,360 420,340 450,340" fill="url(#starGrad)"/>
      <polygon points="530,310 540,340 570,340 545,360 555,390 530,370 505,390 515,360 490,340 520,340" fill="url(#starGrad)"/>
      <polygon points="600,310 610,340 640,340 615,360 625,390 600,370 575,390 585,360 560,340 590,340" fill="url(#starGrad)"/>
    </g>
    <text x="540" y="430" font-family="Arial, sans-serif" font-size="18" font-weight="700" fill="#1a1a2e" text-anchor="middle">Rated 4.9/5 by 500+ Happy Moms</text>
    <rect x="300" y="460" width="480" height="2" fill="#E8A0B4" opacity="0.2"/>
    <text x="540" y="490" font-family="Georgia, serif" font-size="17" font-weight="700" fill="#1a1a2e" text-anchor="middle" font-style="italic">"These are the only shoes my baby will keep on!"</text>
    <text x="540" y="515" font-family="Arial, sans-serif" font-size="13" fill="#1a1a2e" text-anchor="middle" opacity="0.5">— Priya S., Verified Buyer</text>
  </g>
  <rect x="140" y="580" width="800" height="160" rx="20" fill="white" opacity="0.7"/>
  <rect x="140" y="580" width="800" height="160" rx="20" fill="none" stroke="#E8A0B4" stroke-width="1" opacity="0.15"/>
  <text x="540" y="615" font-family="Arial, sans-serif" font-size="16" font-weight="700" fill="#1a1a2e" text-anchor="middle" letter-spacing="2">WHAT MOMS SAY</text>
  <rect x="180" y="640" width="290" height="80" rx="15" fill="#FDF6F0"/>
  <polygon points="310,310 320,340 340,340 325,355 330,375 310,360 290,375 295,355 280,340 300,340" fill="#FFD700" opacity="0.3" transform="translate(120,335) scale(0.5)"/>
  <text x="220" y="670" font-family="Arial, sans-serif" font-size="13" font-weight="700" fill="#1a1a2e">"So soft & pretty!"</text>
  <text x="220" y="695" font-family="Arial, sans-serif" font-size="11" fill="#1a1a2e" opacity="0.5">— Ananya M.</text>
  <line x1="490" y1="640" x2="490" y2="720" stroke="#E8A0B4" stroke-width="1" opacity="0.3"/>
  <rect x="515" y="640" width="290" height="80" rx="15" fill="#FDF6F0"/>
  <polygon points="310,310 320,340 340,340 325,355 330,375 310,360 290,375 295,355 280,340 300,340" fill="#FFD700" opacity="0.3" transform="translate(460,335) scale(0.5)"/>
  <text x="555" y="670" font-family="Arial, sans-serif" font-size="13" font-weight="700" fill="#1a1a2e">"Perfect for gifting!"</text>
  <text x="555" y="695" font-family="Arial, sans-serif" font-size="11" fill="#1a1a2e" opacity="0.5">— Ritu K.</text>
  <rect x="390" y="770" width="300" height="50" rx="25" fill="#1a1a2e"/>
  <text x="540" y="802" font-family="Arial, sans-serif" font-size="17" font-weight="700" fill="white" text-anchor="middle" letter-spacing="2">JOIN THEM</text>
  <rect x="80" y="1020" width="920" height="2" fill="#E8A0B4" opacity="0.3"/>
  <text x="540" y="1045" font-family="Arial, sans-serif" font-size="11" fill="#1a1a2e" opacity="0.3" text-anchor="middle" letter-spacing="2">CROSHARA · INDIA'S FIRST BAREFOOT-FRIENDLY HANDMADE BABY SHOES</text>
</svg>