<svg xmlns="http://www.w3.org/2000/svg" viewBox="0 0 1080 1080" width="1080" height="1080">
  <defs>
    <linearGradient id="bg" x1="0" y1="0" x2="0" y2="1">
      <stop offset="0%" stop-color="#FDF6F0"/>
      <stop offset="100%" stop-color="#F5E6D3"/>
    </linearGradient>
    <linearGradient id="pinkBtn" x1="0" y1="0" x2="1" y2="0">
      <stop offset="0%" stop-color="#E8A0B4"/>
      <stop offset="100%" stop-color="#D4849A"/>
    </linearGradient>
    <filter id="shadow">
      <feDropShadow dx="0" dy="4" stdDeviation="8" flood-color="#1a1a2e" flood-opacity="0.08"/>
    </filter>
  </defs>
  <rect width="1080" height="1080" fill="url(#bg)"/>
  <circle cx="200" cy="200" r="220" fill="#E8A0B4" opacity="0.05"/>
  <circle cx="880" cy="880" r="250" fill="#E8A0B4" opacity="0.04"/>
  <rect x="80" y="40" width="300" height="48" rx="24" fill="#E8A0B4" opacity="0.12"/>
  <text x="100" y="71" font-family="Georgia, serif" font-size="28" font-weight="700" fill="#1a1a2e" letter-spacing="3">CROSHARA</text>
  <text x="380" y="71" font-family="Arial, sans-serif" font-size="14" fill="#E8A0B4" letter-spacing="1">FAMILY</text>
  <rect x="80" y="90" width="60" height="3" rx="1.5" fill="#E8A0B4"/>
  <text x="540" y="220" font-family="Georgia, serif" font-size="46" font-weight="700" fill="#1a1a2e" text-anchor="middle" letter-spacing="2">Matching Sibling Sets</text>
  <text x="540" y="265" font-family="Arial, sans-serif" font-size="18" fill="#1a1a2e" text-anchor="middle" opacity="0.6" letter-spacing="1">Twinning never looked this cute</text>
  <g filter="url(#shadow)">
    <rect x="120" y="310" width="390" height="380" rx="25" fill="white" opacity="0.85"/>
    <rect x="120" y="310" width="390" height="380" rx="25" fill="none" stroke="#E8A0B4" stroke-width="1" opacity="0.2"/>
    <circle cx="315" cy="430" r="55" fill="#E8A0B4" opacity="0.08"/>
    <path d="M280 430 Q295 395 315 430 Q335 465 350 430" fill="none" stroke="#E8A0B4" stroke-width="4" stroke-linecap="round"/>
    <circle cx="300" cy="415" r="5" fill="#1a1a2e" opacity="0.5"/>
    <circle cx="330" cy="415" r="5" fill="#1a1a2e" opacity="0.5"/>
    <path d="M295 445 Q315 455 335 445" fill="none" stroke="#E8A0B4" stroke-width="2" stroke-linecap="round"/>
    <text x="315" y="520" font-family="Georgia, serif" font-size="20" font-weight="700" fill="#1a1a2e" text-anchor="middle">Big Sibling</text>
    <text x="315" y="545" font-family="Arial, sans-serif" font-size="14" fill="#1a1a2e" text-anchor="middle" opacity="0.5">2–4 Years</text>
    <rect x="230" y="575" width="170" height="40" rx="20" fill="#E8A0B4" opacity="0.15"/>
    <text x="315" y="601" font-family="Arial, sans-serif" font-size="13" font-weight="700" fill="#E8A0B4" text-anchor="middle" letter-spacing="1">SHOP BIG</text>
  </g>
  <g filter="url(#shadow)">
    <rect x="570" y="310" width="390" height="380" rx="25" fill="white" opacity="0.85"/>
    <rect x="570" y="310" width="390" height="380" rx="25" fill="none" stroke="#E8A0B4" stroke-width="1" opacity="0.2"/>
    <circle cx="765" cy="430" r="50" fill="#E8A0B4" opacity="0.08"/>
    <path d="M735 430 Q750 400 765 430 Q780 460 795 430" fill="none" stroke="#E8A0B4" stroke-width="4" stroke-linecap="round"/>
    <circle cx="752" cy="415" r="4" fill="#1a1a2e" opacity="0.5"/>
    <circle cx="778" cy="415" r="4" fill="#1a1a2e" opacity="0.5"/>
    <path d="M750 445 Q765 452 780 445" fill="none" stroke="#E8A0B4" stroke-width="2" stroke-linecap="round"/>
    <text x="765" y="520" font-family="Georgia, serif" font-size="20" font-weight="700" fill="#1a1a2e" text-anchor="middle">Little Sibling</text>
    <text x="765" y="545" font-family="Arial, sans-serif" font-size="14" fill="#1a1a2e" text-anchor="middle" opacity="0.5">0–24 Months</text>
    <rect x="680" y="575" width="170" height="40" rx="20" fill="#E8A0B4" opacity="0.15"/>
    <text x="765" y="601" font-family="Arial, sans-serif" font-size="13" font-weight="700" fill="#E8A0B4" text-anchor="middle" letter-spacing="1">SHOP LITTLE</text>
  </g>
  <rect x="340" y="720" width="400" height="55" rx="27" fill="url(#pinkBtn)"/>
  <text x="540" y="755" font-family="Arial, sans-serif" font-size="18" font-weight="700" fill="white" text-anchor="middle" letter-spacing="3">SHOP THE SET</text>
  <rect x="200" y="800" width="680" height="50" rx="25" fill="white" opacity="0.6"/>
  <text x="540" y="832" font-family="Arial, sans-serif" font-size="15" fill="#1a1a2e" text-anchor="middle" opacity="0.6">Mix & match colors for both your littles ❤</text>
  <rect x="80" y="1020" width="920" height="2" fill="#E8A0B4" opacity="0.3"/>
  <text x="540" y="1045" font-family="Arial, sans-serif" font-size="11" fill="#1a1a2e" opacity="0.3" text-anchor="middle" letter-spacing="2">CROSHARA · INDIA'S FIRST BAREFOOT-FRIENDLY HANDMADE BABY SHOES</text>
</svg>