<svg xmlns="http://www.w3.org/2000/svg" viewBox="0 0 1080 1080" width="1080" height="1080">
  <defs>
    <linearGradient id="bg" x1="0" y1="0" x2="0" y2="1">
      <stop offset="0%" stop-color="#FDF6F0"/>
      <stop offset="100%" stop-color="#F5E6D3"/>
    </linearGradient>
    <linearGradient id="pinkGlow" x1="0" y1="0" x2="1" y2="1">
      <stop offset="0%" stop-color="#E8A0B4"/>
      <stop offset="100%" stop-color="#D4849A"/>
    </linearGradient>
    <filter id="shadow">
      <feDropShadow dx="0" dy="5" stdDeviation="10" flood-color="#1a1a2e" flood-opacity="0.1"/>
    </filter>
  </defs>
  <rect width="1080" height="1080" fill="url(#bg)"/>
  <circle cx="200" cy="200" r="250" fill="#E8A0B4" opacity="0.04"/>
  <circle cx="880" cy="880" r="280" fill="#E8A0B4" opacity="0.03"/>
  <rect x="80" y="40" width="300" height="48" rx="24" fill="#E8A0B4" opacity="0.12"/>
  <text x="100" y="71" font-family="Georgia, serif" font-size="28" font-weight="700" fill="#1a1a2e" letter-spacing="3">CROSHARA</text>
  <text x="380" y="71" font-family="Arial, sans-serif" font-size="14" fill="#E8A0B4" letter-spacing="1">UNBOXING</text>
  <rect x="80" y="90" width="60" height="3" rx="1.5" fill="#E8A0B4"/>
  <g filter="url(#shadow)">
    <rect x="240" y="180" width="600" height="480" rx="30" fill="white" opacity="0.9"/>
    <rect x="240" y="180" width="600" height="480" rx="30" fill="none" stroke="#E8A0B4" stroke-width="1.5" opacity="0.15"/>
    <rect x="370" y="240" width="340" height="260" rx="15" fill="#E8A0B4" opacity="0.05"/>
    <rect x="385" y="255" width="310" height="230" rx="10" fill="white" stroke="#E8A0B4" stroke-width="1.5" opacity="0.25"/>
    <line x1="385" y1="300" x2="695" y2="300" stroke="#E8A0B4" stroke-width="1.5" opacity="0.2"/>
    <line x1="385" y1="350" x2="695" y2="350" stroke="#E8A0B4" stroke-width="1.5" opacity="0.2"/>
    <line x1="385" y1="400" x2="695" y2="400" stroke="#E8A0B4" stroke-width="1.5" opacity="0.2"/>
    <rect x="540" y="445" width="60" height="30" rx="5" fill="#E8A0B4" opacity="0.08"/>
    <path d="M540 370 L540 440" stroke="#E8A0B4" stroke-width="1.5" opacity="0.15"/>
    <path d="M470 370 L610 370" stroke="#E8A0B4" stroke-width="1.5" opacity="0.15"/>
    <text x="540" y="285" font-family="Arial, sans-serif" font-size="11" fill="#1a1a2e" text-anchor="middle" opacity="0.2">CROSHARA</text>
    <rect x="370" y="235" width="30" height="15" rx="3" fill="#E8A0B4" opacity="0.15"/>
    <rect x="680" y="235" width="30" height="15" rx="3" fill="#E8A0B4" opacity="0.15"/>
    <circle cx="430" cy="530" r="8" fill="#E8A0B4" opacity="0.15"/>
    <circle cx="550" cy="545" r="6" fill="#E8A0B4" opacity="0.1"/>
    <circle cx="660" cy="535" r="7" fill="#E8A0B4" opacity="0.12"/>
  </g>
  <text x="540" y="560" font-family="Georgia, serif" font-size="22" fill="#E8A0B4" text-anchor="middle" letter-spacing="2">THE UNBOXING</text>
  <text x="540" y="610" font-family="Georgia, serif" font-size="40" font-weight="700" fill="#1a1a2e" text-anchor="middle" letter-spacing="2">Experience</text>
  <rect x="340" y="650" width="400" height="55" rx="27" fill="url(#pinkGlow)"/>
  <text x="540" y="685" font-family="Arial, sans-serif" font-size="18" font-weight="700" fill="white" text-anchor="middle" letter-spacing="3">WATCH UNBOXING</text>
  <rect x="140" y="740" width="800" height="80" rx="20" fill="white" opacity="0.7"/>
  <rect x="140" y="740" width="800" height="80" rx="20" fill="none" stroke="#E8A0B4" stroke-width="1" opacity="0.2"/>
  <circle cx="200" cy="780" r="16" fill="#E8A0B4"/>
  <text x="200" y="785" font-family="Arial, sans-serif" font-size="14" font-weight="700" fill="white" text-anchor="middle">📦</text>
  <text x="235" y="775" font-family="Arial, sans-serif" font-size="15" fill="#1a1a2e" font-weight="700">Eco-Friendly Packaging</text>
  <text x="235" y="795" font-family="Arial, sans-serif" font-size="12" fill="#1a1a2e" opacity="0.5">100% recyclable materials</text>
  <line x1="460" y1="755" x2="460" y2="805" stroke="#E8A0B4" stroke-width="1" opacity="0.3"/>
  <circle cx="520" cy="780" r="16" fill="#E8A0B4"/>
  <text x="520" y="785" font-family="Arial, sans-serif" font-size="14" font-weight="700" fill="white" text-anchor="middle">🎀</text>
  <text x="555" y="775" font-family="Arial, sans-serif" font-size="15" fill="#1a1a2e" font-weight="700">Beautifully Wrapped</text>
  <text x="555" y="795" font-family="Arial, sans-serif" font-size="12" fill="#1a1a2e" opacity="0.5">Ready to gift</text>
  <rect x="80" y="1020" width="920" height="2" fill="#E8A0B4" opacity="0.3"/>
  <text x="540" y="1045" font-family="Arial, sans-serif" font-size="11" fill="#1a1a2e" opacity="0.3" text-anchor="middle" letter-spacing="2">CROSHARA · INDIA'S FIRST BAREFOOT-FRIENDLY HANDMADE BABY SHOES</text>
</svg>