<svg xmlns="http://www.w3.org/2000/svg" viewBox="0 0 1080 1080" width="1080" height="1080">
  <defs>
    <linearGradient id="bg" x1="0" y1="0" x2="0" y2="1">
      <stop offset="0%" stop-color="#FDF6F0"/>
      <stop offset="100%" stop-color="#F8EFE2"/>
    </linearGradient>
    <filter id="shadow">
      <feDropShadow dx="0" dy="4" stdDeviation="8" flood-color="#1a1a2e" flood-opacity="0.08"/>
    </filter>
    <filter id="glow">
      <feGaussianBlur stdDeviation="3"/>
    </filter>
  </defs>
  <rect width="1080" height="1080" fill="url(#bg)"/>
  <circle cx="800" cy="800" r="350" fill="#E8A0B4" opacity="0.04"/>
  <circle cx="280" cy="280" r="250" fill="#E8A0B4" opacity="0.03"/>
  <rect x="80" y="40" width="300" height="48" rx="24" fill="#E8A0B4" opacity="0.12"/>
  <text x="100" y="71" font-family="Georgia, serif" font-size="28" font-weight="700" fill="#1a1a2e" letter-spacing="3">CROSHARA</text>
  <text x="380" y="71" font-family="Arial, sans-serif" font-size="14" fill="#E8A0B4" letter-spacing="1">SHOP</text>
  <rect x="80" y="90" width="60" height="3" rx="1.5" fill="#E8A0B4"/>
  <text x="540" y="220" font-family="Georgia, serif" font-size="44" font-weight="700" fill="#1a1a2e" text-anchor="middle" letter-spacing="2">Available in</text>
  <text x="540" y="275" font-family="Georgia, serif" font-size="44" font-weight="700" fill="#1a1a2e" text-anchor="middle" letter-spacing="2">6 Beautiful Colors</text>
  <rect x="410" y="300" width="260" height="3" rx="1.5" fill="#E8A0B4" opacity="0.4"/>
  <g filter="url(#shadow)">
    <rect x="190" y="360" width="700" height="350" rx="30" fill="white" opacity="0.85"/>
    <rect x="190" y="360" width="700" height="350" rx="30" fill="none" stroke="#E8A0B4" stroke-width="1" opacity="0.12"/>
  </g>
  <circle cx="320" cy="480" r="55" fill="#F5D5E0"/>
  <circle cx="320" cy="480" r="55" fill="none" stroke="#E8A0B4" stroke-width="2" opacity="0.4"/>
  <circle cx="320" cy="480" r="30" fill="#E8A0B4" opacity="0.15"/>
  <text x="320" y="560" font-family="Arial, sans-serif" font-size="15" font-weight="700" fill="#1a1a2e" text-anchor="middle">Blush</text>
  <circle cx="460" cy="480" r="55" fill="#E8D5F5"/>
  <circle cx="460" cy="480" r="55" fill="none" stroke="#C9A8E8" stroke-width="2" opacity="0.4"/>
  <circle cx="460" cy="480" r="30" fill="#C9A8E8" opacity="0.15"/>
  <text x="460" y="560" font-family="Arial, sans-serif" font-size="15" font-weight="700" fill="#1a1a2e" text-anchor="middle">Lavender</text>
  <circle cx="600" cy="480" r="55" fill="#D5F5E0"/>
  <circle cx="600" cy="480" r="55" fill="none" stroke="#8ED4A8" stroke-width="2" opacity="0.4"/>
  <circle cx="600" cy="480" r="30" fill="#8ED4A8" opacity="0.15"/>
  <text x="600" y="560" font-family="Arial, sans-serif" font-size="15" font-weight="700" fill="#1a1a2e" text-anchor="middle">Mint</text>
  <circle cx="740" cy="480" r="55" fill="#D5E8F5"/>
  <circle cx="740" cy="480" r="55" fill="none" stroke="#8EB8D4" stroke-width="2" opacity="0.4"/>
  <circle cx="740" cy="480" r="30" fill="#8EB8D4" opacity="0.15"/>
  <text x="740" y="560" font-family="Arial, sans-serif" font-size="15" font-weight="700" fill="#1a1a2e" text-anchor="middle">Sky</text>
  <circle cx="350" cy="630" r="35" fill="#F5ECD5"/>
  <circle cx="350" cy="630" r="35" fill="none" stroke="#D4C48E" stroke-width="2" opacity="0.4"/>
  <circle cx="350" cy="630" r="18" fill="#D4C48E" opacity="0.15"/>
  <text x="350" y="690" font-family="Arial, sans-serif" font-size="14" font-weight="700" fill="#1a1a2e" text-anchor="middle">Sand</text>
  <circle cx="470" cy="630" r="35" fill="#F5D5D5"/>
  <circle cx="470" cy="630" r="35" fill="none" stroke="#E8A0B4" stroke-width="2" opacity="0.4"/>
  <circle cx="470" cy="630" r="18" fill="#E8A0B4" opacity="0.15"/>
  <text x="470" y="690" font-family="Arial, sans-serif" font-size="14" font-weight="700" fill="#1a1a2e" text-anchor="middle">Cream</text>
  <circle cx="590" cy="630" r="35" fill="#E0E0E0"/>
  <circle cx="590" cy="630" r="35" fill="none" stroke="#AAAAAA" stroke-width="2" opacity="0.4"/>
  <circle cx="590" cy="630" r="18" fill="#AAAAAA" opacity="0.15"/>
  <text x="590" y="690" font-family="Arial, sans-serif" font-size="14" font-weight="700" fill="#1a1a2e" text-anchor="middle">Grey</text>
  <rect x="380" y="740" width="320" height="55" rx="27" fill="#1a1a2e"/>
  <text x="540" y="775" font-family="Arial, sans-serif" font-size="18" font-weight="700" fill="white" text-anchor="middle" letter-spacing="3">SHOP ALL COLORS</text>
  <rect x="80" y="1020" width="920" height="2" fill="#E8A0B4" opacity="0.3"/>
  <text x="540" y="1045" font-family="Arial, sans-serif" font-size="11" fill="#1a1a2e" opacity="0.3" text-anchor="middle" letter-spacing="2">CROSHARA · INDIA'S FIRST BAREFOOT-FRIENDLY HANDMADE BABY SHOES</text>
</svg>