<svg xmlns="http://www.w3.org/2000/svg" viewBox="0 0 1080 1080" width="1080" height="1080">
  <defs>
    <linearGradient id="bg" x1="0" y1="0" x2="1" y2="1">
      <stop offset="0%" stop-color="#FDF6F0"/>
      <stop offset="100%" stop-color="#F7EDE1"/>
    </linearGradient>
    <filter id="softShadow">
      <feDropShadow dx="0" dy="4" stdDeviation="8" flood-color="#1a1a2e" flood-opacity="0.08"/>
    </filter>
  </defs>
  <rect width="1080" height="1080" fill="url(#bg)"/>
  <circle cx="800" cy="800" r="350" fill="#E8A0B4" opacity="0.04"/>
  <rect x="80" y="40" width="300" height="48" rx="24" fill="#E8A0B4" opacity="0.12"/>
  <text x="100" y="71" font-family="Georgia, serif" font-size="28" font-weight="700" fill="#1a1a2e" letter-spacing="3">CROSHARA</text>
  <text x="380" y="71" font-family="Arial, sans-serif" font-size="14" fill="#E8A0B4" letter-spacing="1">CUSTOM</text>
  <rect x="80" y="90" width="60" height="3" rx="1.5" fill="#E8A0B4"/>
  <g filter="url(#softShadow)">
    <rect x="140" y="180" width="800" height="280" rx="30" fill="white"/>
    <rect x="140" y="180" width="800" height="280" rx="30" fill="none" stroke="#E8A0B4" stroke-width="1" opacity="0.15"/>
    <circle cx="300" cy="320" r="60" fill="#F5D5E0"/>
    <circle cx="300" cy="320" r="60" fill="none" stroke="#E8A0B4" stroke-width="1.5" opacity="0.5"/>
    <circle cx="300" cy="320" r="30" fill="#E8A0B4" opacity="0.3"/>
    <circle cx="440" cy="300" r="40" fill="#E8D5F5"/>
    <circle cx="440" cy="300" r="40" fill="none" stroke="#C9A8E8" stroke-width="1.5" opacity="0.5"/>
    <circle cx="440" cy="300" r="20" fill="#C9A8E8" opacity="0.3"/>
    <circle cx="560" cy="340" r="35" fill="#D5F5E0"/>
    <circle cx="560" cy="340" r="35" fill="none" stroke="#8ED4A8" stroke-width="1.5" opacity="0.5"/>
    <circle cx="560" cy="340" r="17" fill="#8ED4A8" opacity="0.3"/>
    <circle cx="670" cy="290" r="30" fill="#D5E8F5"/>
    <circle cx="670" cy="290" r="30" fill="none" stroke="#8EB8D4" stroke-width="1.5" opacity="0.5"/>
    <circle cx="670" cy="290" r="15" fill="#8EB8D4" opacity="0.3"/>
    <circle cx="750" cy="340" r="25" fill="#F5ECD5"/>
    <circle cx="750" cy="340" r="25" fill="none" stroke="#D4C48E" stroke-width="1.5" opacity="0.5"/>
    <circle cx="750" cy="340" r="12" fill="#D4C48E" opacity="0.3"/>
    <circle cx="360" cy="380" r="20" fill="#F5D5E0" opacity="0.6"/>
    <circle cx="620" cy="380" r="22" fill="#E8D5F5" opacity="0.6"/>
    <circle cx="700" cy="400" r="15" fill="#D5F5E0" opacity="0.6"/>
  </g>
  <text x="540" y="540" font-family="Georgia, serif" font-size="46" font-weight="700" fill="#1a1a2e" text-anchor="middle" letter-spacing="2">Custom Orders</text>
  <text x="540" y="590" font-family="Arial, sans-serif" font-size="20" fill="#1a1a2e" text-anchor="middle" opacity="0.6" letter-spacing="1">Your Colors · Your Style · Your Baby</text>
  <rect x="240" y="630" width="600" height="60" rx="30" fill="#1a1a2e"/>
  <text x="540" y="668" font-family="Arial, sans-serif" font-size="20" font-weight="700" fill="white" text-anchor="middle" letter-spacing="3">REQUEST A QUOTE</text>
  <rect x="140" y="730" width="800" height="120" rx="20" fill="white" opacity="0.7"/>
  <rect x="140" y="730" width="800" height="120" rx="20" fill="none" stroke="#E8A0B4" stroke-width="1" opacity="0.2"/>
  <text x="540" y="770" font-family="Georgia, serif" font-size="20" font-weight="700" fill="#1a1a2e" text-anchor="middle">How It Works</text>
  <circle cx="220" cy="810" r="14" fill="#E8A0B4"/>
  <text x="220" y="815" font-family="Arial, sans-serif" font-size="14" font-weight="700" fill="white" text-anchor="middle">1</text>
  <text x="250" y="815" font-family="Arial, sans-serif" font-size="14" fill="#1a1a2e">Pick your colors</text>
  <circle cx="420" cy="810" r="14" fill="#E8A0B4"/>
  <text x="420" y="815" font-family="Arial, sans-serif" font-size="14" font-weight="700" fill="white" text-anchor="middle">2</text>
  <text x="450" y="815" font-family="Arial, sans-serif" font-size="14" fill="#1a1a2e">Choose the size</text>
  <circle cx="620" cy="810" r="14" fill="#E8A0B4"/>
  <text x="620" y="815" font-family="Arial, sans-serif" font-size="14" font-weight="700" fill="white" text-anchor="middle">3</text>
  <text x="650" y="815" font-family="Arial, sans-serif" font-size="14" fill="#1a1a2e">We handcraft it</text>
  <circle cx="820" cy="810" r="14" fill="#E8A0B4"/>
  <text x="820" y="815" font-family="Arial, sans-serif" font-size="14" font-weight="700" fill="white" text-anchor="middle">4</text>
  <text x="850" y="815" font-family="Arial, sans-serif" font-size="14" fill="#1a1a2e">Delivered ♡</text>
  <rect x="80" y="1020" width="920" height="2" fill="#E8A0B4" opacity="0.3"/>
  <text x="540" y="1045" font-family="Arial, sans-serif" font-size="11" fill="#1a1a2e" opacity="0.3" text-anchor="middle" letter-spacing="2">CROSHARA · INDIA'S FIRST BAREFOOT-FRIENDLY HANDMADE BABY SHOES</text>
</svg>