<svg xmlns="http://www.w3.org/2000/svg" viewBox="0 0 1080 1080" width="1080" height="1080">
  <defs>
    <linearGradient id="bg" x1="0" y1="0" x2="0" y2="1">
      <stop offset="0%" stop-color="#FDF6F0"/>
      <stop offset="100%" stop-color="#F7EDE1"/>
    </linearGradient>
    <linearGradient id="accentBar" x1="0" y1="0" x2="1" y2="0">
      <stop offset="0%" stop-color="#E8A0B4"/>
      <stop offset="100%" stop-color="#D4849A"/>
    </linearGradient>
    <filter id="cardShadow">
      <feDropShadow dx="0" dy="6" stdDeviation="12" flood-color="#1a1a2e" flood-opacity="0.08"/>
    </filter>
  </defs>
  <rect width="1080" height="1080" fill="url(#bg)"/>
  <circle cx="950" cy="130" r="250" fill="#E8A0B4" opacity="0.06"/>
  <circle cx="130" cy="950" r="300" fill="#E8A0B4" opacity="0.05"/>
  <rect x="80" y="40" width="300" height="48" rx="24" fill="#E8A0B4" opacity="0.12"/>
  <text x="100" y="71" font-family="Georgia, serif" font-size="28" font-weight="700" fill="#1a1a2e" letter-spacing="3">CROSHARA</text>
  <text x="380" y="71" font-family="Arial, sans-serif" font-size="14" fill="#E8A0B4" letter-spacing="1">MOM TIPS</text>
  <rect x="80" y="90" width="60" height="3" rx="1.5" fill="#E8A0B4"/>
  <g filter="url(#cardShadow)">
    <rect x="140" y="180" width="800" height="680" rx="35" fill="white"/>
    <rect x="140" y="180" width="800" height="680" rx="35" fill="none" stroke="#E8A0B4" stroke-width="1" opacity="0.2"/>
  </g>
  <circle cx="540" cy="260" r="40" fill="#E8A0B4" opacity="0.1"/>
  <text x="540" y="255" font-family="Georgia, serif" font-size="16" fill="#E8A0B4" text-anchor="middle" letter-spacing="2">MOM KNOWS BEST</text>
  <line x1="200" y1="285" x2="880" y2="285" stroke="#E8A0B4" stroke-width="1" opacity="0.3"/>
  <text x="540" y="340" font-family="Georgia, serif" font-size="42" font-weight="700" fill="#1a1a2e" text-anchor="middle" letter-spacing="1">3 Signs Your Baby</text>
  <text x="540" y="395" font-family="Georgia, serif" font-size="42" font-weight="700" fill="#1a1a2e" text-anchor="middle" letter-spacing="1">Needs Better Shoes</text>
  <rect x="200" y="450" width="680" height="90" rx="20" fill="#FDF6F0"/>
  <rect x="200" y="450" width="680" height="90" rx="20" fill="none" stroke="#E8A0B4" stroke-width="1" opacity="0.3"/>
  <circle cx="250" cy="495" r="18" fill="#E8A0B4"/>
  <text x="250" y="500" font-family="Arial, sans-serif" font-size="20" font-weight="700" fill="white" text-anchor="middle">1</text>
  <text x="295" y="485" font-family="Georgia, serif" font-size="20" font-weight="700" fill="#1a1a2e">Socks Keep Falling Off</text>
  <text x="295" y="515" font-family="Arial, sans-serif" font-size="15" fill="#1a1a2e" opacity="0.6">Elastic ankle grips keep baby socks securely in place.</text>
  <rect x="200" y="560" width="680" height="90" rx="20" fill="#FDF6F0"/>
  <rect x="200" y="560" width="680" height="90" rx="20" fill="none" stroke="#E8A0B4" stroke-width="1" opacity="0.3"/>
  <circle cx="250" cy="605" r="18" fill="#E8A0B4"/>
  <text x="250" y="610" font-family="Arial, sans-serif" font-size="20" font-weight="700" fill="white" text-anchor="middle">2</text>
  <text x="295" y="595" font-family="Georgia, serif" font-size="20" font-weight="700" fill="#1a1a2e">Tight Red Marks on Ankles</text>
  <text x="295" y="625" font-family="Arial, sans-serif" font-size="15" fill="#1a1a2e" opacity="0.6">Our ultra-soft fabric leaves zero marks on delicate skin.</text>
  <rect x="200" y="670" width="680" height="90" rx="20" fill="#FDF6F0"/>
  <rect x="200" y="670" width="680" height="90" rx="20" fill="none" stroke="#E8A0B4" stroke-width="1" opacity="0.3"/>
  <circle cx="250" cy="715" r="18" fill="#E8A0B4"/>
  <text x="250" y="720" font-family="Arial, sans-serif" font-size="20" font-weight="700" fill="white" text-anchor="middle">3</text>
  <text x="295" y="705" font-family="Georgia, serif" font-size="20" font-weight="700" fill="#1a1a2e">Crawling Frustration</text>
  <text x="295" y="735" font-family="Arial, sans-serif" font-size="15" fill="#1a1a2e" opacity="0.6">Non-slip soles give little ones the grip they need to explore.</text>
  <rect x="320" y="790" width="440" height="50" rx="25" fill="url(#accentBar)"/>
  <text x="540" y="822" font-family="Arial, sans-serif" font-size="18" font-weight="700" fill="white" text-anchor="middle" letter-spacing="2">CROSHARA TO THE RESCUE</text>
  <rect x="80" y="1020" width="920" height="2" fill="#E8A0B4" opacity="0.3"/>
  <text x="540" y="1045" font-family="Arial, sans-serif" font-size="11" fill="#1a1a2e" opacity="0.3" text-anchor="middle" letter-spacing="2">CROSHARA · INDIA'S FIRST BAREFOOT-FRIENDLY HANDMADE BABY SHOES</text>
</svg>